<svg width="352" height="224" viewBox="0 0 352 224" fill="none" xmlns="http://www.w3.org/2000/svg">
<path fill-rule="evenodd" clip-rule="evenodd" d="M201.112 108.145C201.784 105.956 203.492 104.283 205.551 103.281C217.924 97.2556 227.257 85.96 230.629 72.315C231.178 70.0921 232.457 68.071 234.456 66.9553C244.68 61.2507 256.461 58 269 58C308.212 58 340 89.7878 340 129C340 168.212 308.212 200 269 200C229.788 200 198 168.212 198 129C198 121.742 199.089 114.739 201.112 108.145Z" fill="#D9F2B3"/>
<path fill-rule="evenodd" clip-rule="evenodd" d="M135.253 62.3269C137.11 63.6357 138.182 65.7501 138.517 67.9977C140.713 82.7037 149.72 95.1838 162.227 102.124C164.213 103.226 165.816 104.968 166.392 107.165C168.094 113.655 169 120.471 169 127.5C169 171.407 133.63 207 90 207C46.3695 207 11 171.407 11 127.5C11 83.5934 46.3695 48 90 48C106.833 48 122.436 53.2978 135.253 62.3269Z" fill="#CCF0FF"/>
<path d="M228 61C228 84.7482 208.748 104 185 104C161.252 104 142 84.7482 142 61C142 37.2518 161.252 18 185 18C208.748 18 228 37.2518 228 61Z" fill="#FFEC70"/>
<path d="M47.9921 145.175L41.9032 139.623C20.2773 119.982 6 106.987 6 91.1314C6 78.1357 16.1621 68 29.0956 68C36.4023 68 43.4149 71.4066 47.9921 76.7479C52.5692 71.4066 59.5819 68 66.8885 68C79.822 68 89.9841 78.1357 89.9841 91.1314C89.9841 106.987 75.7068 119.982 54.0809 139.623L47.9921 145.175Z" fill="#B1D63B"/>
<path fill-rule="evenodd" clip-rule="evenodd" d="M47.936 145.123L47.992 145.174L54.0809 139.623C75.7068 119.982 89.9841 106.987 89.9841 91.1312C89.9841 83.1028 86.1057 76.1659 80.0915 72.0359C86.0388 80.6925 86.0635 94.8251 75.2301 109.992C66.4217 122.324 53.6965 138.145 47.936 145.123Z" fill="#78AD1C"/>
<path d="M121.763 155.389V114.532C121.763 112.025 119.73 109.992 117.223 109.992V109.992" stroke="#48AEA9" stroke-width="2.26984" stroke-linejoin="round"/>
<path d="M85.4452 155.389V114.532C85.4452 112.025 87.4777 109.992 89.9849 109.992V109.992" stroke="#48AEA9" stroke-width="2.26984" stroke-linejoin="round"/>
<path d="M85.4452 155.389V164.468C85.4452 174.497 93.5752 182.627 103.604 182.627V182.627C113.633 182.627 121.763 174.497 121.763 164.468V155.389" stroke="#0081A8" stroke-width="4.53968" stroke-linejoin="round"/>
<path d="M103.604 182.627V187.167C103.604 199.703 93.4411 209.865 80.9051 209.865V209.865C68.3691 209.865 58.2067 199.703 58.2067 187.167V128.151" stroke="#0081A8" stroke-width="4.53968" stroke-linejoin="round"/>
<rect width="4.53968" height="4.53968" rx="2.26984" transform="matrix(-1 0 0 1 118.358 107.722)" fill="#0081A8"/>
<rect width="6.80952" height="6.80952" rx="3.40476" transform="matrix(-1 0 0 1 117.223 106.587)" fill="#0081A8"/>
<rect width="4.53968" height="4.53968" rx="2.26984" transform="matrix(-1 0 0 1 93.3896 107.722)" fill="#0081A8"/>
<rect width="6.80952" height="6.80952" rx="3.40476" transform="matrix(-1 0 0 1 96.7944 106.587)" fill="#0081A8"/>
<circle r="9.07936" transform="matrix(-1 0 0 1 58.2068 119.072)" fill="#60BFBF" stroke="#0081A8" stroke-width="4.53968"/>
<path d="M136 166.429H150.092L153.598 155L160.322 173L162.54 166.429H190M197.5 166.429H199.5M208 166.429H209" stroke="#60BFBF" stroke-width="4" stroke-linecap="round" stroke-linejoin="round"/>
<path d="M137 126C137 124.895 137.895 124 139 124V124C140.105 124 141 124.895 141 126V129H137V126Z" fill="#92DCD5"/>
<rect x="137" y="129" width="4" height="2" fill="#60BFBF"/>
<path d="M137 131H141V145C141 146.105 140.105 147 139 147V147C137.895 147 137 146.105 137 145V131Z" fill="#48AEA9"/>
<path d="M147 117C147 115.895 147.895 115 149 115V115C150.105 115 151 115.895 151 117V120H147V117Z" fill="#92DCD5"/>
<rect x="147" y="120" width="4" height="13" fill="#60BFBF"/>
<path d="M147 133H151V145C151 146.105 150.105 147 149 147V147C147.895 147 147 146.105 147 145V133Z" fill="#48AEA9"/>
<path d="M157 130C157 128.895 157.895 128 159 128V128C160.105 128 161 128.895 161 130V141H157V130Z" fill="#92DCD5"/>
<rect x="157" y="141" width="4" height="2" fill="#60BFBF"/>
<path d="M157 143H161V145C161 146.105 160.105 147 159 147V147C157.895 147 157 146.105 157 145V143Z" fill="#48AEA9"/>
<path d="M167 127C167 125.895 167.895 125 169 125V125C170.105 125 171 125.895 171 127V133H167V127Z" fill="#92DCD5"/>
<rect x="167" y="133" width="4" height="8" fill="#60BFBF"/>
<path d="M167 141H171V145C171 146.105 170.105 147 169 147V147C167.895 147 167 146.105 167 145V141Z" fill="#48AEA9"/>
<path d="M177 124C177 122.895 177.895 122 179 122V122C180.105 122 181 122.895 181 124V135H177V124Z" fill="#92DCD5"/>
<rect x="177" y="135" width="4" height="2" fill="#60BFBF"/>
<path d="M177 137H181V145C181 146.105 180.105 147 179 147V147C177.895 147 177 146.105 177 145V137Z" fill="#48AEA9"/>
<circle cx="199" cy="135" r="10" stroke="#48AEA9" stroke-width="4"/>
<path d="M209 135C209 136.313 208.741 137.614 208.239 138.827C207.736 140.04 207 141.142 206.071 142.071" stroke="#60BFBF" stroke-width="4"/>
<path d="M199 125C200.313 125 201.614 125.259 202.827 125.761C204.04 126.264 205.142 127 206.071 127.929C207 128.858 207.736 129.96 208.239 131.173C208.741 132.386 209 133.687 209 135" stroke="#92DCD5" stroke-width="4"/>
<path d="M172.275 158.74V160H168.525V158.74H169.536V153.901H168.457V152.642H171.328V158.74H172.275ZM179.404 156.299C179.404 157.539 179.168 158.483 178.696 159.131C178.224 159.775 177.544 160.098 176.655 160.098C175.763 160.098 175.081 159.775 174.609 159.131C174.141 158.483 173.906 157.539 173.906 156.299C173.906 155.088 174.139 154.154 174.604 153.496C175.073 152.839 175.757 152.51 176.655 152.51C177.563 152.51 178.249 152.832 178.711 153.477C179.173 154.118 179.404 155.059 179.404 156.299ZM175.757 156.299C175.757 157.152 175.83 157.783 175.977 158.193C176.123 158.604 176.353 158.809 176.665 158.809C176.978 158.809 177.205 158.604 177.349 158.193C177.492 157.783 177.563 157.152 177.563 156.299C177.563 154.619 177.264 153.779 176.665 153.779C176.353 153.779 176.123 153.989 175.977 154.409C175.83 154.829 175.757 155.459 175.757 156.299ZM184.873 158.74V160H181.123V158.74H182.134V153.901H181.055V152.642H183.926V158.74H184.873ZM191.172 158.74V160H187.422V158.74H188.433V153.901H187.354V152.642H190.225V158.74H191.172ZM198.301 156.299C198.301 157.539 198.065 158.483 197.593 159.131C197.121 159.775 196.44 160.098 195.552 160.098C194.66 160.098 193.978 159.775 193.506 159.131C193.037 158.483 192.803 157.539 192.803 156.299C192.803 155.088 193.035 154.154 193.501 153.496C193.97 152.839 194.653 152.51 195.552 152.51C196.46 152.51 197.145 152.832 197.607 153.477C198.07 154.118 198.301 155.059 198.301 156.299ZM194.653 156.299C194.653 157.152 194.727 157.783 194.873 158.193C195.02 158.604 195.249 158.809 195.562 158.809C195.874 158.809 196.102 158.604 196.245 158.193C196.388 157.783 196.46 157.152 196.46 156.299C196.46 154.619 196.16 153.779 195.562 153.779C195.249 153.779 195.02 153.989 194.873 154.409C194.727 154.829 194.653 155.459 194.653 156.299ZM204.6 156.299C204.6 157.539 204.364 158.483 203.892 159.131C203.42 159.775 202.739 160.098 201.851 160.098C200.959 160.098 200.277 159.775 199.805 159.131C199.336 158.483 199.102 157.539 199.102 156.299C199.102 155.088 199.334 154.154 199.8 153.496C200.269 152.839 200.952 152.51 201.851 152.51C202.759 152.51 203.444 152.832 203.906 153.477C204.368 154.118 204.6 155.059 204.6 156.299ZM200.952 156.299C200.952 157.152 201.025 157.783 201.172 158.193C201.318 158.604 201.548 158.809 201.86 158.809C202.173 158.809 202.401 158.604 202.544 158.193C202.687 157.783 202.759 157.152 202.759 156.299C202.759 154.619 202.459 153.779 201.86 153.779C201.548 153.779 201.318 153.989 201.172 154.409C201.025 154.829 200.952 155.459 200.952 156.299Z" fill="#48AEA9"/>
<path d="M312 80.8517C312.002 81.0979 311.954 81.342 311.861 81.5699C311.768 81.7978 311.63 82.005 311.456 82.1796C311.283 82.3542 311.076 82.4928 310.849 82.5873C310.621 82.6819 310.378 82.7305 310.131 82.7305H297.751V95.1211C297.748 95.6186 297.549 96.095 297.197 96.4468C296.846 96.7986 296.369 96.9974 295.872 97H280.119C279.622 96.9974 279.147 96.7983 278.797 96.4462C278.446 96.0941 278.25 95.6177 278.25 95.1211V82.7404H265.879C265.632 82.7401 265.388 82.6909 265.161 82.5959C264.934 82.5009 264.727 82.3618 264.554 82.1867C264.379 82.015 264.24 81.8104 264.145 81.5846C264.05 81.3588 264.001 81.1164 264 80.8714V65.1483C264 64.6517 264.197 64.1753 264.547 63.8233C264.897 63.4712 265.372 63.2721 265.869 63.2695H278.22V50.869C278.22 50.3733 278.417 49.8979 278.768 49.5474C279.118 49.1969 279.593 49 280.089 49H295.842C296.339 49 296.815 49.1966 297.167 49.5468C297.519 49.897 297.718 50.3724 297.721 50.869V63.2398H310.082C310.328 63.2385 310.572 63.2859 310.8 63.3792C311.028 63.4726 311.235 63.61 311.41 63.7837C311.584 63.9574 311.723 64.1639 311.818 64.3913C311.912 64.6187 311.961 64.8625 311.961 65.1088L312 80.8517Z" fill="#94C12E"/>
<rect x="222" y="113" width="108" height="72" rx="6" fill="white" stroke="#94C12E" stroke-width="4" stroke-linejoin="round"/>
<path d="M216 187H336V189C336 190.105 335.105 191 334 191H218C216.895 191 216 190.105 216 189V187Z" fill="#78AD1C"/>
<path d="M232 155C232 153.895 232.895 153 234 153H237V157H234C232.895 157 232 156.105 232 155V155Z" fill="#80D0C8"/>
<rect x="237" y="153" width="3" height="4" fill="#40B9B9"/>
<path d="M240 153H254C255.105 153 256 153.895 256 155V155C256 156.105 255.105 157 254 157H240V153Z" fill="#008E9E"/>
<path d="M232 161C232 159.895 232.895 159 234 159H241V163H234C232.895 163 232 162.105 232 161V161Z" fill="#80D0C8"/>
<rect x="241" y="159" width="4" height="4" fill="#40B9B9"/>
<path d="M245 159H248C249.105 159 250 159.895 250 161V161C250 162.105 249.105 163 248 163H245V159Z" fill="#008E9E"/>
<path d="M232 167C232 165.895 232.895 165 234 165H235V169H234C232.895 169 232 168.105 232 167V167Z" fill="#80D0C8"/>
<rect x="235" y="165" width="11" height="4" fill="#40B9B9"/>
<path d="M246 165H253C254.105 165 255 165.895 255 167V167C255 168.105 254.105 169 253 169H246V165Z" fill="#008E9E"/>
<path d="M232 173C232 171.895 232.895 171 234 171H237V175H234C232.895 175 232 174.105 232 173V173Z" fill="#80D0C8"/>
<rect x="237" y="171" width="5" height="4" fill="#40B9B9"/>
<path d="M242 171H251C252.105 171 253 171.895 253 173V173C253 174.105 252.105 175 251 175H242V171Z" fill="#008E9E"/>
<path d="M244 143.64C241 143.64 238.348 142.104 236.8 139.8C236.836 137.4 241.6 136.08 244 136.08C246.4 136.08 251.164 137.4 251.2 139.8C249.652 142.104 247 143.64 244 143.64ZM244 126.6C244.955 126.6 245.87 126.979 246.546 127.654C247.221 128.33 247.6 129.245 247.6 130.2C247.6 131.155 247.221 132.07 246.546 132.746C245.87 133.421 244.955 133.8 244 133.8C243.045 133.8 242.13 133.421 241.454 132.746C240.779 132.07 240.4 131.155 240.4 130.2C240.4 129.245 240.779 128.33 241.454 127.654C242.13 126.979 243.045 126.6 244 126.6V126.6ZM244 123C242.424 123 240.864 123.31 239.408 123.913C237.952 124.517 236.629 125.4 235.515 126.515C233.264 128.765 232 131.817 232 135C232 138.183 233.264 141.235 235.515 143.485C236.629 144.6 237.952 145.483 239.408 146.087C240.864 146.69 242.424 147 244 147C247.183 147 250.235 145.736 252.485 143.485C254.736 141.235 256 138.183 256 135C256 128.364 250.6 123 244 123Z" fill="#008E9E"/>
<rect x="248" y="139" width="8" height="8" rx="4" fill="#FFCC00"/>
<path d="M264 154.588C266.904 154.588 267.881 153.16 268.781 151.845C269.549 150.723 270.261 149.682 272.067 149.682C275.745 149.682 276.187 155.718 276.632 161.775C277.079 167.876 277.529 174 281.287 174C284.847 174 285.023 162.709 285.209 150.858C285.413 137.77 285.629 124 290.423 124C294.599 124 295.023 134.333 295.421 144.029C295.773 152.599 296.105 160.671 298.988 160.671C301.36 160.671 301.941 158.152 302.547 155.526C303.207 152.668 303.896 149.682 306.957 149.682C309.055 149.682 309.855 150.739 310.712 151.872C311.702 153.179 312.769 154.588 316 154.588" stroke="#FFCC00" stroke-width="4" stroke-linecap="round" stroke-linejoin="round"/>
<path d="M316 148.655C312.848 148.655 311.717 151.521 310.634 154.265C309.638 156.786 308.684 159.204 306.241 159.204C303.272 159.204 302.931 151.455 302.568 143.228C302.158 133.92 301.721 124 297.42 124C292.483 124 292.261 137.22 292.051 149.784C291.86 161.161 291.678 172 288.012 172C284.141 172 283.679 166.121 283.218 160.264C282.76 154.449 282.304 148.655 278.517 148.655C276.382 148.655 275.592 149.97 274.848 151.211C274.183 152.318 273.554 153.365 272.038 153.365C270.61 153.365 269.86 152.436 269.026 151.404C267.982 150.111 266.805 148.655 264 148.655" stroke="#40B9B9" stroke-width="4" stroke-linecap="round" stroke-linejoin="round"/>
<rect x="311" y="90" width="32" height="60" rx="6" fill="white" stroke="#78AD1C" stroke-width="4" stroke-linejoin="round"/>
<path d="M317 120C317 118.895 317.895 118 319 118H321V122H319C317.895 122 317 121.105 317 120V120Z" fill="#80D0C8"/>
<rect x="321" y="118" width="2" height="4" fill="#40B9B9"/>
<path d="M323 118H335C336.105 118 337 118.895 337 120V120C337 121.105 336.105 122 335 122H323V118Z" fill="#008E9E"/>
<path d="M317 126C317 124.895 317.895 124 319 124H325V128H319C317.895 128 317 127.105 317 126V126Z" fill="#80D0C8"/>
<rect x="325" y="124" width="3" height="4" fill="#40B9B9"/>
<path d="M328 124H330C331.105 124 332 124.895 332 126V126C332 127.105 331.105 128 330 128H328V124Z" fill="#008E9E"/>
<path d="M317 132C317 130.895 317.895 130 319 130V130V134V134C317.895 134 317 133.105 317 132V132Z" fill="#80D0C8"/>
<rect x="319" y="130" width="10" height="4" fill="#40B9B9"/>
<path d="M329 130H333C334.105 130 335 130.895 335 132V132C335 133.105 334.105 134 333 134H329V130Z" fill="#008E9E"/>
<rect x="321" y="140" width="12" height="4" rx="2" fill="#94C12E"/>
<path d="M345 98V98C345.552 98 346 98.4477 346 99V105C346 105.552 345.552 106 345 106V106V98Z" fill="#94C12E"/>
<path d="M345 108V108C345.552 108 346 108.448 346 109V115C346 115.552 345.552 116 345 116V116V108Z" fill="#94C12E"/>
<path d="M327 113.2C324.5 113.2 322.29 111.92 321 110C321.03 108 325 106.9 327 106.9C329 106.9 332.97 108 333 110C331.71 111.92 329.5 113.2 327 113.2ZM327 99C327.796 99 328.559 99.3161 329.121 99.8787C329.684 100.441 330 101.204 330 102C330 102.796 329.684 103.559 329.121 104.121C328.559 104.684 327.796 105 327 105C326.204 105 325.441 104.684 324.879 104.121C324.316 103.559 324 102.796 324 102C324 101.204 324.316 100.441 324.879 99.8787C325.441 99.3161 326.204 99 327 99V99ZM327 96C325.687 96 324.386 96.2587 323.173 96.7612C321.96 97.2638 320.858 98.0003 319.929 98.9289C318.054 100.804 317 103.348 317 106C317 108.652 318.054 111.196 319.929 113.071C320.858 114 321.96 114.736 323.173 115.239C324.386 115.741 325.687 116 327 116C329.652 116 332.196 114.946 334.071 113.071C335.946 111.196 337 108.652 337 106C337 100.47 332.5 96 327 96Z" fill="#008E9E"/>
<rect x="330" y="109" width="7" height="7" rx="3.5" fill="#FFCC00"/>
<path d="M152.928 71C152.755 71 152.599 70.9393 152.46 70.818C152.339 70.6793 152.278 70.5233 152.278 70.35V53.45C152.278 53.2593 152.339 53.1033 152.46 52.982C152.599 52.8607 152.755 52.8 152.928 52.8H156.204C156.395 52.8 156.551 52.8607 156.672 52.982C156.793 53.1033 156.854 53.2593 156.854 53.45V59.222L161.664 53.294C161.872 52.9647 162.21 52.8 162.678 52.8H166.422C166.578 52.8 166.708 52.8607 166.812 52.982C166.916 53.086 166.968 53.2073 166.968 53.346C166.968 53.4673 166.942 53.5713 166.89 53.658L160.65 61.51L167.358 70.142C167.427 70.2113 167.462 70.3153 167.462 70.454C167.462 70.5927 167.41 70.7227 167.306 70.844C167.202 70.948 167.072 71 166.916 71H163.042C162.626 71 162.279 70.8267 162.002 70.48L156.854 64.058V70.35C156.854 70.5407 156.793 70.6967 156.672 70.818C156.551 70.9393 156.395 71 156.204 71H152.928ZM170.168 71C169.978 71 169.822 70.9393 169.7 70.818C169.579 70.6967 169.518 70.5407 169.518 70.35V53.45C169.518 53.2593 169.579 53.1033 169.7 52.982C169.839 52.8607 169.995 52.8 170.168 52.8H173.522C173.713 52.8 173.869 52.8607 173.99 52.982C174.129 53.1033 174.198 53.2593 174.198 53.45V59.716H180.594V53.45C180.594 53.2593 180.655 53.1033 180.776 52.982C180.898 52.8607 181.054 52.8 181.244 52.8H184.598C184.789 52.8 184.945 52.8607 185.066 52.982C185.188 53.1033 185.248 53.2593 185.248 53.45V70.35C185.248 70.5407 185.188 70.6967 185.066 70.818C184.945 70.9393 184.789 71 184.598 71H181.244C181.054 71 180.898 70.9393 180.776 70.818C180.655 70.6967 180.594 70.5407 180.594 70.35V63.876H174.198V70.35C174.198 70.5407 174.129 70.6967 173.99 70.818C173.869 70.9393 173.713 71 173.522 71H170.168ZM188.709 71C188.519 71 188.363 70.9393 188.241 70.818C188.12 70.6793 188.059 70.5147 188.059 70.324V67.802C188.059 67.438 188.189 67.126 188.449 66.866L196.821 56.674H188.943C188.77 56.674 188.614 56.6133 188.475 56.492C188.354 56.3533 188.293 56.1973 188.293 56.024V53.45C188.293 53.2593 188.354 53.1033 188.475 52.982C188.614 52.8607 188.77 52.8 188.943 52.8H202.073C202.264 52.8 202.42 52.8607 202.541 52.982C202.663 53.1033 202.723 53.2593 202.723 53.45V55.972C202.723 56.2667 202.611 56.5613 202.385 56.856L194.247 67.074H202.359C202.55 67.074 202.706 67.1433 202.827 67.282C202.966 67.4033 203.035 67.5593 203.035 67.75V70.35C203.035 70.5407 202.966 70.6967 202.827 70.818C202.706 70.9393 202.55 71 202.359 71H188.709ZM213.163 71.26C210.667 71.26 208.717 70.6533 207.313 69.44C205.909 68.2093 205.164 66.4673 205.077 64.214C205.06 63.7113 205.051 62.914 205.051 61.822C205.051 60.73 205.06 59.9327 205.077 59.43C205.164 57.2287 205.918 55.53 207.339 54.334C208.778 53.138 210.719 52.54 213.163 52.54C214.81 52.54 216.24 52.8087 217.453 53.346C218.684 53.8833 219.62 54.568 220.261 55.4C220.92 56.232 221.266 57.09 221.301 57.974C221.301 58.13 221.24 58.26 221.119 58.364C221.015 58.468 220.885 58.52 220.729 58.52H216.933C216.76 58.52 216.621 58.494 216.517 58.442C216.413 58.39 216.326 58.2947 216.257 58.156C216.032 57.6533 215.676 57.22 215.191 56.856C214.706 56.4747 214.03 56.284 213.163 56.284C211.1 56.284 210.017 57.376 209.913 59.56C209.896 60.0453 209.887 60.7993 209.887 61.822C209.887 62.8273 209.896 63.5813 209.913 64.084C210.017 66.372 211.126 67.516 213.241 67.516C214.264 67.516 215.078 67.256 215.685 66.736C216.309 66.1987 216.621 65.384 216.621 64.292V63.798H214.177C213.986 63.798 213.83 63.7373 213.709 63.616C213.588 63.4773 213.527 63.3127 213.527 63.122V61.198C213.527 61.0073 213.588 60.8513 213.709 60.73C213.83 60.5913 213.986 60.522 214.177 60.522H220.729C220.92 60.522 221.076 60.5913 221.197 60.73C221.318 60.8513 221.379 61.0073 221.379 61.198V64.162C221.379 65.6353 221.041 66.9093 220.365 67.984C219.689 69.0413 218.727 69.856 217.479 70.428C216.248 70.9827 214.81 71.26 213.163 71.26Z" fill="#D97B00"/>
</svg>
