<svg width="192" height="64" viewBox="0 0 192 64" fill="none" xmlns="http://www.w3.org/2000/svg">
<g clip-path="url(#clip0_996_8208)">
<path d="M165.916 18.5896C165.916 18.6715 165.901 18.7526 165.869 18.8284C165.838 18.9042 165.793 18.973 165.735 19.0311C165.677 19.0892 165.609 19.1352 165.533 19.1666C165.457 19.1981 165.376 19.2142 165.294 19.2142H161.178V23.3337C161.177 23.4991 161.111 23.6575 160.994 23.7744C160.877 23.8914 160.719 23.9575 160.553 23.9584H155.316C155.151 23.9575 154.993 23.8913 154.877 23.7742C154.76 23.6572 154.695 23.4988 154.695 23.3337V19.2175H150.582C150.5 19.2174 150.419 19.2011 150.343 19.1695C150.268 19.1379 150.199 19.0916 150.141 19.0334C150.083 18.9764 150.037 18.9083 150.006 18.8333C149.974 18.7582 149.958 18.6776 149.957 18.5962V13.3688C149.957 13.2037 150.023 13.0453 150.139 12.9282C150.255 12.8112 150.414 12.745 150.579 12.7441H154.685V8.62137C154.685 8.45657 154.75 8.29852 154.867 8.18199C154.983 8.06546 155.142 8 155.306 8H160.544C160.709 8 160.867 8.06536 160.984 8.18179C161.101 8.29823 161.167 8.45627 161.168 8.62137V12.7342H165.278C165.36 12.7338 165.441 12.7496 165.517 12.7806C165.592 12.8116 165.661 12.8573 165.719 12.9151C165.778 12.9728 165.824 13.0415 165.855 13.1171C165.886 13.1927 165.902 13.2738 165.902 13.3556L165.916 18.5896Z" fill="#94C12E"/>
<path d="M24.2072 46.6695C23.9639 46.6695 23.9639 46.1337 24.0593 45.6997C24.1546 45.2657 24.3026 44.7758 24.5459 44.7758C27.8927 44.7758 28.4911 43.2734 28.7672 41.7216L31.4828 28.423C31.7754 26.8219 31.7754 25.4148 28.4253 25.4148C28.2346 25.4148 28.1853 24.8821 28.2806 24.4285C28.3793 24.0405 28.5732 23.4421 28.8165 23.4421H36.7727C37.7919 23.4421 38.0878 23.8334 38.0352 24.6586C38.0352 24.9874 38.3245 25.0926 38.6171 24.8526C39.2976 24.2706 41.0927 22.9095 43.5486 22.9095C48.0593 22.9095 49.565 24.2706 50.4527 25.6745C50.5974 25.9178 51.0346 25.9178 51.3733 25.6285C52.2971 24.7539 54.1382 22.9095 57.051 22.9095C62.3375 22.9095 65.5397 24.9972 64.3759 30.7211L62.1929 41.6887C61.9003 43.2898 61.8641 44.743 64.6192 44.743C64.8625 44.743 64.7638 45.3249 64.7178 45.6668C64.6718 46.0087 64.5206 46.6367 64.2806 46.6367H58.7507C55.9859 46.6367 55.1113 45.6175 55.5979 43.1419L57.8795 31.8849C59.0433 26.1117 57.6822 25.7238 55.5979 25.7238C52.9678 25.7238 51.3239 28.3539 51.3239 28.3539L48.6083 41.6986C48.2796 43.589 48.365 44.7528 50.5809 44.7528C50.7749 44.7528 50.7749 45.1901 50.6763 45.6767C50.5776 46.1632 50.4363 46.6465 50.2423 46.6465H45.1168C42.6412 46.6465 41.576 45.6274 42.1086 43.0564L44.3409 31.8783C45.4094 26.5917 44.4396 25.7172 42.0133 25.7172C39.1004 25.7172 37.3053 28.6301 37.3053 28.6301L34.6752 41.6821C34.3464 43.2832 34.3464 44.7364 36.7628 44.7364C37.0028 44.7364 37.0028 45.1737 36.9075 45.6602C36.8122 46.1468 36.6675 46.6301 36.4209 46.6301L24.2072 46.6695Z" fill="#94C12E"/>
<path d="M68.9852 43.9047C69.5671 41.0411 71.7008 40.7979 72.914 40.7979C74.1271 40.7979 76.0208 41.0905 75.4389 43.954C74.903 46.765 72.6707 47.0576 71.5561 47.0576C70.4416 47.0576 68.4 46.765 68.9852 43.9047Z" fill="#575757"/>
<path d="M82.3561 46.6696C80.3638 46.6696 79.4433 45.4565 79.7819 43.6121L84.7331 18.9545C85.0619 17.0641 84.7792 15.897 81.6756 15.897C81.3863 15.897 81.4816 15.4597 81.5803 14.9765C81.6789 14.4932 81.7709 14.0066 82.0635 14.0066H91.7688L86.2356 41.7118C85.9068 43.2143 85.8477 44.7167 89.2931 44.7167C89.6219 44.7167 89.4871 45.2526 89.3918 45.703C89.3424 46.091 89.1485 46.6729 88.9545 46.6729L82.3561 46.6696Z" fill="#575757"/>
<path d="M97.8937 46.6696C95.9507 46.6696 94.9808 45.4565 95.3688 43.6121L98.4263 28.4263C98.7551 26.5327 98.4756 25.3688 95.3688 25.3688C95.0794 25.3688 95.0794 24.9316 95.1748 24.4483C95.2701 23.965 95.4674 23.462 95.7074 23.462H105.413L101.724 41.7085C101.435 43.211 101.395 44.7135 104.877 44.7135C105.123 44.7135 105.074 45.2494 104.975 45.6998C104.877 46.0877 104.732 46.6696 104.492 46.6696H97.8937ZM102.937 20.3222C100.659 20.3222 99.6493 19.1584 100.126 16.8307C100.56 14.5491 102.115 13.3853 104.4 13.3853C106.826 13.3853 107.688 14.5984 107.264 16.88C106.839 19.1617 105.314 20.3222 102.937 20.3222Z" fill="#575757"/>
<path d="M102.983 55.9835C102.792 55.9835 102.743 55.5002 102.888 54.915C103.032 54.3298 103.177 53.8498 103.374 53.8498H105.215C107.74 53.8498 109.161 51.9561 110.213 46.6696L114.487 25.3227H111.616C111.472 25.3227 111.376 24.8854 111.472 24.3989C111.567 23.9123 111.863 23.4915 111.962 23.4915H112.688C114.677 23.4915 115.453 22.4263 116.035 20.4372C117.83 14.5194 121.858 13.4016 125.402 13.4016C128.798 13.4016 131.319 14.858 130.787 17.4783C130.458 19.2241 129.183 20 127.828 20C126.664 20 125.793 19.1748 125.987 18.1556C126.132 17.3797 126.519 17.3304 126.664 16.6038C126.858 15.6175 126.181 15.098 125.349 15.098C122.63 15.098 122.061 17.6723 121.075 22.4756L120.888 23.4915H126.372C126.467 23.4915 126.516 23.8827 126.421 24.4153C126.326 24.9479 126.128 25.3391 125.984 25.3391H124.767C120.69 25.3391 120.253 26.7923 119.915 28.3441L116.278 46.6696C114.822 53.8498 109.874 55.9835 105.363 55.9835H102.983Z" fill="#575757"/>
<path d="M145.664 39.9726C142.899 45.6998 139.562 47.4915 134.844 47.4915C129.554 47.4915 123.488 45.6965 125.576 35.2154C127.614 25.1222 134.124 22.9885 139.111 22.9885C144.013 22.9885 148.718 24.3036 147.603 29.7315C146.683 34.3343 141.83 36.6356 136.008 36.6356C133.144 36.6356 131.3 37.5562 131.254 39.6439C131.106 44.2466 132.418 45.1277 135.232 45.1277C137.898 45.1277 140.821 44.3978 143.237 39.9825C143.333 39.7392 143.915 39.7392 144.45 39.7392C145.082 39.7293 145.759 39.7787 145.664 39.9726ZM131.836 34.5874H136.152C138.141 34.5874 141.005 33.8115 141.781 29.7841C142.557 25.7567 141.534 24.6422 138.773 24.6422C135.764 24.6422 133.338 27.3085 131.836 34.5874Z" fill="#575757"/>
</g>
<defs>
<clipPath id="clip0_996_8208">
<rect width="142.027" height="48" fill="white" transform="translate(24 8)"/>
</clipPath>
</defs>
</svg>
