<svg width="192" height="64" viewBox="0 0 192 64" fill="none" xmlns="http://www.w3.org/2000/svg">
<g clip-path="url(#clip0_996_8209)">
<path d="M9.2062 46.6363C8.96374 46.6363 8.96374 46.1014 9.06013 45.6652C9.15751 45.228 9.30358 44.743 9.54603 44.743C12.8947 44.743 13.4773 43.2386 13.7698 41.6855L16.4858 28.3866C16.7786 26.7848 16.7786 25.3768 13.4286 25.3768C13.2349 25.3768 13.1862 24.8432 13.2835 24.4057C13.3796 24.0185 13.5747 23.4348 13.8171 23.4348H21.7777C22.7963 23.4348 23.0887 23.8234 23.0397 24.6494C23.0397 24.9879 23.3295 25.0853 23.6223 24.8432C24.302 24.2609 26.0976 22.9012 28.5731 22.9012C33.086 22.9012 34.5908 24.2609 35.4652 25.6676C35.6099 25.9101 36.0475 25.9101 36.3863 25.6189C37.3094 24.7455 39.154 22.9012 42.0651 22.9012C47.3558 22.9012 50.5597 24.9879 49.3938 30.7158L47.211 41.6855C46.9182 43.2873 46.8695 44.743 49.6375 44.743C49.8797 44.743 49.7836 45.3253 49.7349 45.6652C49.6859 46.054 49.5398 46.6363 49.2977 46.6363H43.763C40.9983 46.6363 40.1235 45.6165 40.6097 43.1413L42.8912 31.8804C44.0558 26.1052 42.6961 25.7166 40.6097 25.7166C37.9894 25.7166 36.3373 28.3383 36.3373 28.3383L33.6209 41.6855C33.2798 43.5785 33.3772 44.743 35.6099 44.743C35.8037 44.743 35.8037 45.1789 35.7063 45.6652C35.6099 46.1991 35.4652 46.6363 35.2704 46.6363H30.1246C27.6493 46.6363 26.5825 45.6165 27.1157 43.0439L29.3488 31.8804C30.417 26.5901 29.4462 25.7166 27.0184 25.7166C24.1069 25.7166 22.3113 28.6291 22.3113 28.6291L19.6901 41.6855C19.3512 43.2873 19.3512 44.743 21.7777 44.743C22.0189 44.743 22.0189 45.1789 21.9228 45.6652C21.8268 46.1991 21.6804 46.6363 21.4366 46.6363H9.2062Z" fill="#0069B4"/>
<path d="M54.0004 44.1986C54.5827 41.3349 56.7194 41.0924 57.9327 41.0924C59.0973 41.0924 61.0389 41.3836 60.457 44.2473C59.922 47.0614 57.6893 47.3538 56.573 47.3538C55.5062 47.3538 53.4181 47.0614 54.0004 44.1986Z" fill="#575656"/>
<path d="M66.517 35.1895C68.7744 24.0902 76.0787 23.0812 80.3548 23.0812C83.5238 23.0812 88.2812 24.0902 87.7061 26.8289L86.9353 30.7217C86.8883 30.9135 86.0708 31.0112 85.8319 31.0112C85.6872 31.0112 84.8697 30.9135 84.9164 30.7217C85.6872 26.8289 83.9071 24.8142 80.0186 24.8142C77.6164 24.8142 74.7329 25.5811 72.8587 35.0448C71.0316 44.0315 73.7703 44.943 76.0787 44.943C79.2007 44.943 81.7944 44.0315 83.285 39.9002C83.3787 39.6613 84.2436 39.7084 84.4351 39.7084C84.6779 39.7084 85.5428 39.7084 85.4957 39.9002C83.2343 46.0033 79.584 47.3452 75.6912 47.3452C71.5129 47.3452 64.3063 46.3396 66.517 35.1895Z" fill="#575656"/>
<path d="M106.841 27.5526C106.841 27.5526 105.061 24.6695 102.276 24.6695C100.112 24.6695 97.71 25.534 95.7417 35.3343C93.9149 44.321 95.4993 45.5691 97.9995 45.5691C100.163 45.5691 103.43 44.6575 105.304 35.2405L106.841 27.5526ZM104.631 46.5784C103.813 46.5784 103.093 46.3396 103.43 44.8493C101.794 46.3866 99.8263 47.2041 97.6626 47.2041C93.6254 47.2041 87.2367 46.4333 89.4471 35.1428C91.6575 23.8987 98.4295 23.0812 102.612 23.0812C105.014 23.0812 106.407 24.5247 106.696 24.7632C106.935 25.006 107.369 24.8609 107.514 24.5714C107.897 23.8516 108.523 23.6131 109.196 23.6131H113.613L109.963 41.676C109.627 43.3117 109.819 44.6575 113.038 44.6575C113.277 44.6575 113.183 45.1385 113.085 45.6158C112.991 46.0501 112.893 46.5784 112.702 46.5784H104.631Z" fill="#575656"/>
<path d="M115.167 46.5784C114.975 46.5784 114.975 45.9523 115.022 45.6158C115.073 45.2325 115.358 44.6575 115.55 44.6575C118.821 44.6575 119.349 43.3584 119.685 41.676L122.373 28.5113C122.709 26.7822 122.518 25.487 119.349 25.487C119.157 25.487 119.157 24.908 119.204 24.5714C119.251 24.2349 119.494 23.6131 119.732 23.6131H127.659C128.285 23.6131 129.247 23.6598 128.813 25.534C130.351 24.0901 132.467 23.0812 135.01 23.0812C138.328 23.0812 140.104 25.0527 139.576 27.7444C139.192 29.7124 137.893 30.5302 136.356 30.5302C134.916 30.5302 133.954 29.6186 134.196 28.4642C134.337 27.6464 134.673 27.4549 134.818 26.6881C134.963 25.9173 134.388 25.4363 133.762 25.4363C132.706 25.4363 128.813 25.8706 126.986 34.9981L125.593 41.676C125.256 43.2646 125.354 44.6575 128.621 44.6575C128.813 44.6575 128.766 45.2796 128.719 45.6158C128.668 45.9053 128.429 46.5784 128.238 46.5784H115.167Z" fill="#575656"/>
<path d="M146.317 34.6145H150.593C152.564 34.6145 155.397 33.8437 156.168 29.8571C156.935 25.8706 155.925 24.7632 153.187 24.7632C150.209 24.7632 147.807 27.4079 146.317 34.6145ZM160.01 39.9469C157.271 45.6158 153.957 47.3959 149.298 47.3959C144.059 47.3959 138.054 45.6158 140.119 35.2405C142.138 25.2445 148.574 23.1318 153.523 23.1318C158.378 23.1318 163.038 24.4267 161.935 29.8101C161.019 34.376 156.215 36.6331 150.448 36.6331C147.615 36.6331 145.788 37.5447 145.741 39.6107C145.597 44.1762 146.896 45.0408 149.681 45.0408C152.322 45.0408 155.205 44.321 157.607 39.9469C157.705 39.7084 158.28 39.7084 158.809 39.7084C159.434 39.7084 160.108 39.7554 160.01 39.9469Z" fill="#575656"/>
<path d="M180.374 13.5774C180.389 13.4116 180.398 13.2455 180.398 13.0757C180.398 10.3087 178.155 8.06274 175.386 8.06274C173.347 8.06274 171.592 9.27963 170.81 11.0285C170.028 9.27963 168.273 8.06274 166.235 8.06274C163.465 8.06274 161.223 10.3087 161.223 13.0757C161.223 13.2455 161.232 13.4116 161.246 13.5774C161.246 13.5774 161.345 18.5127 170.873 23.4776C180.398 18.5127 180.374 13.5774 180.374 13.5774Z" fill="#0069B4"/>
</g>
<defs>
<clipPath id="clip0_996_8209">
<rect width="171.616" height="48" fill="white" transform="translate(9 8)"/>
</clipPath>
</defs>
</svg>
