<svg width="192" height="64" viewBox="0 0 192 64" fill="none" xmlns="http://www.w3.org/2000/svg">
<path d="M66.026 47.0869C65.7697 47.0869 65.5389 46.9975 65.3335 46.8176C65.1541 46.6128 65.0642 46.3819 65.0642 46.1251V21.1185C65.0642 20.8367 65.1541 20.6059 65.3335 20.426C65.5389 20.2467 65.7697 20.1567 66.026 20.1567H83.9923C84.2746 20.1567 84.5054 20.2467 84.6848 20.426C84.8641 20.6059 84.9541 20.8367 84.9541 21.1185V24.7349C84.9541 24.9917 84.8641 25.2225 84.6848 25.4274C84.5054 25.6072 84.2746 25.6967 83.9923 25.6967H71.7198V30.8903H83.1459C83.4282 30.8903 83.659 30.9932 83.8384 31.1981C84.0178 31.378 84.1077 31.6088 84.1077 31.8906V35.2376C84.1077 35.4944 84.0178 35.7253 83.8384 35.9301C83.659 36.11 83.4282 36.1994 83.1459 36.1994H71.7198V41.547H84.3001C84.5823 41.547 84.8132 41.6369 84.9925 41.8163C85.1719 41.9961 85.2618 42.227 85.2618 42.5088V46.1251C85.2618 46.3819 85.1719 46.6128 84.9925 46.8176C84.8132 46.9975 84.5823 47.0869 84.3001 47.0869H66.026Z" fill="#58A624"/>
<path d="M89.1556 47.0869C88.8988 47.0869 88.668 46.9975 88.4632 46.8176C88.2833 46.6128 88.1938 46.3819 88.1938 46.1251V21.1185C88.1938 20.8367 88.2833 20.6059 88.4632 20.426C88.668 20.2467 88.8988 20.1567 89.1556 20.1567H94.2339C94.5157 20.1567 94.7465 20.2467 94.9264 20.426C95.1058 20.6059 95.1957 20.8367 95.1957 21.1185V41.2777H106.853C107.134 41.2777 107.365 41.3806 107.545 41.5855C107.724 41.7653 107.814 41.9961 107.814 42.278V46.1251C107.814 46.3819 107.724 46.6128 107.545 46.8176C107.365 46.9975 107.134 47.0869 106.853 47.0869H89.1556Z" fill="#58A624"/>
<path d="M110.103 22.2711C113.785 22.2711 117.274 21.4435 120.393 19.9642C121.146 19.6069 121.957 20.2778 121.55 21.0044C120.62 22.663 119.213 24.0182 117.514 24.8833C117.062 25.1141 116.827 25.6417 116.984 26.1245C117.856 28.7992 118.365 32.3372 118.444 35.2553C118.714 45.2579 118.741 47.3104 113.68 47.2652C110.944 47.2407 110.721 45.5849 110.811 35.4476C110.839 32.3425 110.918 29.1715 111.285 26.6972C111.361 26.1875 111.025 25.7037 110.529 25.5633C109.117 25.1637 107.836 24.4491 106.769 23.5003C106.146 22.9467 106.691 22.0455 107.519 22.134C108.368 22.2249 109.23 22.2711 110.103 22.2711Z" fill="#58A624"/>
<path d="M133.782 47.4763C131.346 47.4763 129.255 47.1176 127.511 46.3991C125.767 45.6812 124.446 44.7449 123.549 43.5907C122.676 42.4111 122.215 41.1285 122.164 39.7435C122.164 39.5387 122.241 39.3588 122.395 39.2049C122.574 39.0256 122.779 38.9356 123.01 38.9356H127.858C128.165 38.9356 128.409 39.0001 128.589 39.128C128.793 39.2304 128.999 39.3973 129.204 39.6281C129.537 40.2951 130.076 40.8462 130.82 41.2824C131.563 41.7186 132.551 41.9364 133.782 41.9364C135.244 41.9364 136.36 41.7056 137.129 41.2439C137.899 40.7823 138.283 40.1542 138.283 39.3588C138.283 38.7947 138.078 38.3331 137.668 37.9738C137.283 37.6151 136.668 37.2943 135.821 37.012C134.975 36.7302 133.718 36.4095 132.051 36.0503C128.973 35.4092 126.665 34.4729 125.126 33.2418C123.613 31.9852 122.856 30.2026 122.856 27.8943C122.856 26.3299 123.292 24.9319 124.164 23.7008C125.036 22.4698 126.28 21.508 127.896 20.8155C129.512 20.123 131.397 19.7767 133.551 19.7767C135.783 19.7767 137.719 20.1615 139.361 20.9309C141.002 21.7003 142.246 22.6751 143.092 23.8547C143.964 25.0089 144.426 26.1505 144.477 27.2787C144.477 27.5095 144.4 27.7019 144.247 27.8558C144.093 28.0097 143.9 28.0866 143.669 28.0866H138.591C138.283 28.0866 138.027 28.0356 137.822 27.9327C137.642 27.8303 137.476 27.6634 137.322 27.4326C137.168 26.843 136.745 26.3424 136.052 25.9322C135.385 25.522 134.552 25.3167 133.551 25.3167C132.397 25.3167 131.512 25.522 130.897 25.9322C130.281 26.3424 129.974 26.9454 129.974 27.7404C129.974 28.279 130.14 28.7281 130.474 29.0869C130.832 29.4461 131.397 29.7794 132.166 30.0871C132.961 30.3694 134.09 30.6642 135.552 30.972C137.937 31.4082 139.835 31.9593 141.246 32.6263C142.682 33.2678 143.733 34.1142 144.4 35.1654C145.067 36.1916 145.401 37.4867 145.401 39.051C145.401 40.7698 144.901 42.2702 143.9 43.5522C142.926 44.8093 141.554 45.7836 139.784 46.4761C138.04 47.1431 136.039 47.4763 133.782 47.4763Z" fill="#58A624"/>
<path d="M148.764 47.0869C148.507 47.0869 148.276 46.9975 148.072 46.8176C147.892 46.6123 147.802 46.3819 147.802 46.1251V21.1185C147.802 20.8367 147.892 20.6054 148.072 20.426C148.276 20.2467 148.507 20.1567 148.764 20.1567H166.73C167.012 20.1567 167.243 20.2467 167.423 20.426C167.602 20.6054 167.692 20.8367 167.692 21.1185V24.7349C167.692 24.9917 167.602 25.222 167.423 25.4274C167.243 25.6072 167.012 25.6967 166.73 25.6967H154.458V30.8903H165.884C166.166 30.8903 166.397 30.9928 166.576 31.1981C166.756 31.378 166.846 31.6088 166.846 31.8906V35.2376C166.846 35.4944 166.756 35.7253 166.576 35.9301C166.397 36.1095 166.166 36.1994 165.884 36.1994H154.458V41.547H167.038C167.32 41.547 167.551 41.6369 167.731 41.8163C167.91 41.9961 168 42.227 168 42.5088V46.1251C168 46.3819 167.91 46.6123 167.731 46.8176C167.551 46.9975 167.32 47.0869 167.038 47.0869H148.764Z" fill="#58A624"/>
<path fill-rule="evenodd" clip-rule="evenodd" d="M47.5153 15.9425C47.3071 16.5682 46.9738 17.1366 46.5453 17.6184L52.5455 21.0828C52.7537 20.4572 53.087 19.8887 53.5159 19.4069L47.5153 15.9425ZM46.5482 27.5677L52.5402 24.1086C52.746 24.7347 53.0778 25.3046 53.5049 25.7874L47.5168 29.2446C47.309 28.6184 46.9767 28.05 46.5482 27.5677ZM49.6736 33.5197L53.9055 26.1899C54.3859 26.6198 54.9538 26.9545 55.579 27.1642L51.3505 34.4878L53.5159 35.7381C53.087 36.22 52.7537 36.7884 52.5455 37.414L50.3824 36.1651L46.1481 43.4983C45.6668 43.0694 45.0983 42.7361 44.4727 42.5274L48.7051 35.1966L46.5482 33.9516C46.9762 33.4692 47.309 32.9003 47.5168 32.2747L49.6736 33.5197ZM52.5402 40.4398L46.5482 43.8989C46.9767 44.3813 47.309 44.9497 47.5168 45.5758L53.5049 42.1186C53.0778 41.6353 52.746 41.066 52.5402 40.4398ZM38.3874 45.571C38.5957 44.9453 38.9289 44.3769 39.3574 43.8951L33.3803 40.4442C33.1736 41.0703 32.8413 41.6397 32.4137 42.122L38.3874 45.571ZM39.7609 43.4926C40.2432 43.0646 40.8121 42.7323 41.4378 42.5245L37.2073 35.1966L39.3579 33.9554C38.9289 33.4736 38.5957 32.9052 38.3874 32.2795L36.2388 33.5197L34.6456 30.7594L41.4406 18.9899C40.8145 18.7832 40.2451 18.4509 39.7628 18.0233L33.5275 28.8233L32.0103 26.1957C31.5289 26.6246 30.9605 26.9579 30.3348 27.1666L32.4094 30.7594L30.3257 34.3685C30.9518 34.5758 31.5207 34.9081 32.003 35.3361L33.5275 32.696L34.5619 34.4878L32.4027 35.7347C32.8321 36.2161 33.1659 36.7841 33.375 37.4092L35.5304 36.1651L39.7609 43.4926ZM39.3608 17.6223C38.9313 17.1409 38.5976 16.5725 38.3889 15.9473L32.4027 19.4035C32.8321 19.8849 33.1659 20.4528 33.375 21.078L39.3608 17.6223Z" fill="#7DAB6C"/>
<path d="M28.809 27.407C31.4649 27.407 33.6179 25.2539 33.6179 22.598C33.6179 19.9421 31.4649 17.7891 28.809 17.7891C26.153 17.7891 24 19.9421 24 22.598C24 25.2539 26.153 27.407 28.809 27.407Z" fill="#3F77D0"/>
<path d="M28.809 43.7424C31.4649 43.7424 33.6179 41.5894 33.6179 38.9335C33.6179 36.2776 31.4649 34.1245 28.809 34.1245C26.153 34.1245 24 36.2776 24 38.9335C24 41.5894 26.153 43.7424 28.809 43.7424Z" fill="#3F77D0"/>
<path d="M42.9447 19.226C45.6006 19.226 47.7537 17.0729 47.7537 14.417C47.7537 11.7611 45.6006 9.60803 42.9447 9.60803C40.2888 9.60803 38.1357 11.7611 38.1357 14.417C38.1357 17.0729 40.2888 19.226 42.9447 19.226Z" fill="#DF2935"/>
<path d="M42.9447 35.5702C45.6006 35.5702 47.7537 33.4171 47.7537 30.7612C47.7537 28.1053 45.6006 25.9523 42.9447 25.9523C40.2888 25.9523 38.1357 28.1053 38.1357 30.7612C38.1357 33.4171 40.2888 35.5702 42.9447 35.5702Z" fill="#DF2935"/>
<path d="M42.9447 51.897C45.6006 51.897 47.7537 49.7439 47.7537 47.088C47.7537 44.4321 45.6006 42.2791 42.9447 42.2791C40.2888 42.2791 38.1357 44.4321 38.1357 47.088C38.1357 49.7439 40.2888 51.897 42.9447 51.897Z" fill="#DF2935"/>
<path d="M57.1068 27.407C59.7627 27.407 61.9158 25.2539 61.9158 22.598C61.9158 19.9421 59.7627 17.7891 57.1068 17.7891C54.4509 17.7891 52.2979 19.9421 52.2979 22.598C52.2979 25.2539 54.4509 27.407 57.1068 27.407Z" fill="#FF9F1C"/>
<path d="M57.1068 43.7424C59.7627 43.7424 61.9158 41.5894 61.9158 38.9335C61.9158 36.2776 59.7627 34.1245 57.1068 34.1245C54.4509 34.1245 52.2979 36.2776 52.2979 38.9335C52.2979 41.5894 54.4509 43.7424 57.1068 43.7424Z" fill="#FF9F1C"/>
<path d="M114.117 18.1011C115.445 18.1011 116.521 17.0246 116.521 15.6966C116.521 14.3686 115.445 13.2921 114.117 13.2921C112.789 13.2921 111.712 14.3686 111.712 15.6966C111.712 17.0246 112.789 18.1011 114.117 18.1011Z" fill="white"/>
<path fill-rule="evenodd" clip-rule="evenodd" d="M114.649 9.02719C114.7 9.31669 114.661 9.6009 114.552 9.85193C116.179 10.3886 117.467 11.7803 117.786 13.5861C118.247 16.2017 116.501 18.6961 113.885 19.1573C111.269 19.6184 108.775 17.8718 108.314 15.2562C107.853 12.6406 109.599 10.1467 112.215 9.68554C112.277 9.67448 112.338 9.66486 112.4 9.65621C113.217 9.47731 113.806 8.79733 113.898 8C114.28 8.20053 114.568 8.56938 114.649 9.02719ZM114.12 17.6194C113.243 17.6194 112.502 17.0327 112.271 16.2296C112.558 16.2834 112.855 16.3113 113.158 16.3113C114.228 16.3113 115.217 15.9617 116.016 15.3702C116.034 15.476 116.043 15.5852 116.043 15.6958C116.043 16.7581 115.182 17.6194 114.12 17.6194Z" fill="#FF9F1C"/>
</svg>
